<svg width="24" height="24" viewBox="0 0 24 24" fill="none" xmlns="http://www.w3.org/2000/svg">
<path fill-rule="evenodd" clip-rule="evenodd" d="M14.2402 5.46997C14.2402 3.31982 13.5 0.669922 13.5 0.669922C17.4102 3.7998 20 8.60986 20 14C20 18.4199 16.4199 22 12 22C7.58008 22 4 18.4199 4 14C4 10.6199 5.20996 7.51001 7.22998 5.10986L7.2002 5.46997C7.2002 7.53003 8.75977 9.19995 10.8301 9.19995C12.8901 9.19995 14.2402 7.53003 14.2402 5.46997ZM8.49023 15.8599C8.49023 17.5999 9.93018 19 11.7104 19C14.3604 19 16.5103 16.8499 16.5103 14.2C16.5103 12.8098 16.3101 11.45 15.9204 10.1599C14.9004 11.53 13.0703 12.3799 11.3003 12.74C9.54004 13.0999 8.49023 14.24 8.49023 15.8599Z" fill="#EB5757"/>
</svg>
