<svg width="13" height="19" viewBox="0 0 13 19" fill="none" xmlns="http://www.w3.org/2000/svg">
<path fill-rule="evenodd" clip-rule="evenodd" d="M2.60693 2.61877C1.57959 3.64918 1.00195 5.04427 1 6.49931V12.5C1 15.5778 3.40771 18 6.4751 18H6.5C9.5332 18 12 15.5331 12 12.5V6.5C12 3.47083 9.52441 1.0066 6.48633 0.999992C5.02783 1.0064 3.63428 1.58836 2.60693 2.61877ZM6.5 19H6.4751C2.90674 19 0 16.0855 0 12.5V6.5C0 2.93253 2.896 0.0211792 6.46045 0H6.51709C10.0977 0.0250473 13 2.93638 13 6.5V12.5C13 16.0838 10.083 19 6.5 19Z" fill="white"/>
<path d="M7 3.5H6V9.5H7V3.5Z" fill="white"/>
</svg>
