<svg width="24" height="24" viewBox="0 0 24 24" fill="none" xmlns="http://www.w3.org/2000/svg">
<path fill-rule="evenodd" clip-rule="evenodd" d="M12 2C6.47998 2 2 6.47998 2 12C2 17.52 6.47998 22 12 22C17.52 22 22 17.52 22 12C22 6.47998 17.52 2 12 2ZM12 20C7.58984 20 4 16.41 4 12C4 7.58997 7.58984 4 12 4C16.4102 4 20 7.58997 20 12C20 16.41 16.4102 20 12 20ZM10 14.1699L16.5898 7.57996L18 9L10 17L6 13L7.41016 11.59L10 14.1699Z" fill="##00C853"/>
<path fill-rule="evenodd" clip-rule="evenodd" d="M12 2C6.47998 2 2 6.47998 2 12C2 17.52 6.47998 22 12 22C17.52 22 22 17.52 22 12C22 6.47998 17.52 2 12 2ZM12 20C7.58984 20 4 16.41 4 12C4 7.58997 7.58984 4 12 4C16.4102 4 20 7.58997 20 12C20 16.41 16.4102 20 12 20ZM10 14.1699L16.5898 7.57996L18 9L10 17L6 13L7.41016 11.59L10 14.1699Z" fill="#00C853"/>
</svg>
